<svg xmlns="http://www.w3.org/2000/svg" width="27" height="34" viewBox="0 0 27 34" fill="none">
<path d="M6.1875 33.25C4.61667 33.25 3.27604 32.6948 2.16562 31.5844C1.05521 30.474 0.5 29.1333 0.5 27.5625V6.4375C0.5 4.86667 1.05521 3.52604 2.16562 2.41562C3.27604 1.30521 4.61667 0.75 6.1875 0.75H26.5V25.125C25.8229 25.125 25.2474 25.362 24.7734 25.8359C24.2995 26.3099 24.0625 26.8854 24.0625 27.5625C24.0625 28.2396 24.2995 28.8151 24.7734 29.2891C25.2474 29.763 25.8229 30 26.5 30V33.25H6.1875ZM7 21.875H10.25V4H7V21.875ZM6.1875 30H21.3406C21.1781 29.6208 21.0495 29.2349 20.9547 28.8422C20.8599 28.4495 20.8125 28.0229 20.8125 27.5625C20.8125 27.1292 20.8531 26.7094 20.9344 26.3031C21.0156 25.8969 21.151 25.5042 21.3406 25.125H6.1875C5.48333 25.125 4.90104 25.362 4.44062 25.8359C3.98021 26.3099 3.75 26.8854 3.75 27.5625C3.75 28.2667 3.98021 28.849 4.44062 29.3094C4.90104 29.7698 5.48333 30 6.1875 30Z" fill="#F6F3FF"/>
</svg>